<svg id="Layer_1" enable-background="new 0 0 512 512" height="512" viewBox="0 0 512 512" width="512" xmlns="http://www.w3.org/2000/svg"><path d="m26.06 97.582c20.714-4.79 41.175-.306 58.656 10.841 39.824 25.371 88.167 26.148 129.239-.001 26.061-16.608 56.764-17.413 84.096.005 39.587 25.204 87.941 26.302 129.234-.005 18.395-11.723 38.671-15.472 58.641-10.843 11.297 2.621 22.581-4.415 25.201-15.714 2.62-11.298-4.416-22.581-15.714-25.201-30.762-7.132-62.973-1.331-90.696 16.336-26.2 16.691-56.968 17.276-84.101.001-41.326-26.336-89.72-25.181-129.225-.005-26.414 16.817-57.183 17.156-84.101.008-27.043-17.244-59.016-23.665-90.69-16.343-11.3 2.612-18.343 13.89-15.73 25.191 2.612 11.299 13.885 18.341 25.19 15.73z"/><path d="m495.413 221.664c-30.762-7.132-62.973-1.33-90.696 16.337-26.2 16.691-56.968 17.276-84.101.001-41.326-26.336-89.72-25.181-129.225-.005-26.414 16.817-57.183 17.156-84.101.008-27.043-17.245-59.016-23.666-90.69-16.344-11.3 2.613-18.342 13.891-15.73 25.191 2.612 11.299 13.886 18.342 25.191 15.73 20.714-4.79 41.175-.306 58.656 10.841 39.824 25.371 88.167 26.148 129.239-.001 26.061-16.608 56.764-17.413 84.096.005 39.587 25.204 87.941 26.302 129.234-.005 18.395-11.723 38.671-15.473 58.641-10.843 11.297 2.619 22.581-4.416 25.201-15.714 2.619-11.299-4.417-22.581-15.715-25.201z"/><path d="m495.414 397.913c-30.763-7.133-62.973-1.331-90.697 16.336-26.201 16.692-56.967 17.276-84.101.001-41.326-26.336-89.72-25.181-129.225-.005-26.367 16.787-57.134 17.188-84.101.008-27.043-17.245-59.011-23.667-90.69-16.343-11.3 2.613-18.342 13.891-15.73 25.191s13.891 18.339 25.191 15.73c20.713-4.79 41.175-.307 58.656 10.84 39.824 25.372 88.166 26.149 129.239-.001 26.061-16.608 56.764-17.413 84.096.005 41.356 26.331 89.709 25.176 129.234-.004 18.396-11.723 38.672-15.473 58.641-10.843 11.295 2.622 22.581-4.416 25.201-15.713 2.619-11.3-4.416-22.582-15.714-25.202z"/><circle cx="256" cy="490.667" r="21.333"/><circle cx="373.333" cy="21.333" r="21.333"/><circle cx="256" cy="149.333" r="21.333"/><circle cx="138.667" cy="21.333" r="21.333"/><circle cx="373.333" cy="196.667" r="21.333"/><circle cx="138.667" cy="196.667" r="21.333"/><circle cx="256" cy="314.333" r="21.333"/><circle cx="373.333" cy="362.667" r="21.333"/><circle cx="138.667" cy="362.667" r="21.333"/></svg>